/* XPM */
static char *penguin[] = {
/* width height num_colors chars_per_pixel */
"    48    48      190            2",
/* colors */
".. c #000000",
".# c #001111",
".a c #040304",
".b c #0c0b0c",
".c c #110011",
".d c #111111",
".e c #111122",
".f c #140506",
".g c #151413",
".h c #160d0a",
".i c #1c1c1c",
".j c #220011",
".k c #222222",
".l c #242424",
".m c #261d17",
".n c #271509",
".o c #2d2b2d",
".p c #331111",
".q c #333333",
".r c #333434",
".s c #341e06",
".t c #3c2e3c",
".u c #3c363a",
".v c #3d3c3c",
".w c #442222",
".x c #443344",
".y c #443355",
".z c #444344",
".A c #444444",
".B c #444466",
".C c #445555",
".D c #4c2d08",
".E c #4c340c",
".F c #4c3b13",
".G c #551133",
".H c #553508",
".I c #554466",
".J c #555555",
".K c #555566",
".L c #555577",
".M c #556666",
".N c #557788",
".O c #564428",
".P c #583c0d",
".Q c #5b5b5b",
".R c #643d05",
".S c #645440",
".T c #655e5f",
".U c #656465",
".V c #665588",
".W c #666666",
".X c #666677",
".Y c #666688",
".Z c #67440b",
".0 c #694b11",
".1 c #6b5428",
".2 c #6c6c6c",
".3 c #746e72",
".4 c #754c08",
".5 c #755a2a",
".6 c #776677",
".7 c #777777",
".8 c #777788",
".9 c #778877",
"#. c #778888",
"## c #778899",
"#a c #7a641f",
"#b c #7b5c15",
"#c c #7c7c7c",
"#d c #84550b",
"#e c #848383",
"#f c #886688",
"#g c #887788",
"#h c #8877aa",
"#i c #888888",
"#j c #888899",
"#k c #8888aa",
"#l c #889988",
"#m c #889999",
"#n c #8899aa",
"#o c #895e0e",
"#p c #8a6714",
"#q c #8b7019",
"#r c #939494",
"#s c #946a24",
"#t c #95610d",
"#u c #977532",
"#v c #987b3a",
"#w c #99680e",
"#x c #997015",
"#y c #998888",
"#z c #998899",
"#A c #999999",
"#B c #9999aa",
"#C c #9999bb",
"#D c #99aa99",
"#E c #99aaaa",
"#F c #9b7b1b",
"#G c #9d8960",
"#H c #9d8e70",
"#I c #9d9c9b",
"#J c #a46a0d",
"#K c #a5a4a4",
"#L c #a6700d",
"#M c #aa790f",
"#N c #aa99aa",
"#O c #aaaaaa",
"#P c #aaaabb",
"#Q c #aabbaa",
"#R c #aabbbb",
"#S c #ababab",
"#T c #afb3a9",
"#U c #b18729",
"#V c #b28411",
"#W c None",
"#X c #b4a488",
"#Y c #b5b4b5",
"#Z c #b67c0d",
"#0 c #b6903f",
"#1 c #b89015",
"#2 c #b8902b",
"#3 c #b89845",
"#4 c #bbaabb",
"#5 c #bbbbbb",
"#6 c #bbbbcc",
"#7 c #bbccbb",
"#8 c #bc850e",
"#9 c #bc8a27",
"a. c #bca423",
"a# c #bcbcbd",
"aa c #c47e04",
"ab c #c4850c",
"ac c #c4b08b",
"ad c #c4bdbc",
"ae c #c4c4c4",
"af c #c88c0e",
"ag c #c8a440",
"ah c #c8ac19",
"ai c #c9a42b",
"aj c #c9b88f",
"ak c #ca9b15",
"al c #cb9310",
"am c #cbb363",
"an c #cbcbcb",
"ao c #cccccc",
"ap c #ccddcc",
"aq c #ccdddd",
"ar c #d4b429",
"as c #d4d4d5",
"at c #d5950e",
"au c #d5ab29",
"av c #d5bd92",
"aw c #d6b417",
"ax c #d89c0e",
"ay c #d8a527",
"az c #d9bc18",
"aA c #daac12",
"aB c #dba40f",
"aC c #dbdcdc",
"aD c #dcc618",
"aE c #dce2de",
"aF c #ddbbcc",
"aG c #ddccdd",
"aH c #dddddd",
"aI c #ddeedd",
"aJ c #ddeeee",
"aK c #e49e0e",
"aL c #e4a50e",
"aM c #e4bb41",
"aN c #e4c819",
"aO c #e4ce25",
"aP c #e4dee1",
"aQ c #e4e4e3",
"aR c #e4eae8",
"aS c #e5d5a9",
"aT c #e6ac0d",
"aU c #ecbc12",
"aV c #edb40e",
"aW c #edecec",
"aX c #eed01b",
"aY c #eeddee",
"aZ c #eeeeee",
"a0 c #eeeeff",
"a1 c #f3c315",
"a2 c #f4bd13",
"a3 c #f6f6f3",
"a4 c #faf4dd",
"a5 c #fcfae2",
"a6 c #fcfdfb",
"a7 c #ffffff",
/* pixels */
"#W#W#W#W#W#W#W#W#W#W#W#W#W#W#W#W#W#W#W#W#W#W#W.a.a.a.a.a.a.a.a#W#W#W#W#W#W#W#W#W#W#W#W#W#W#W#W#W",
"#W#WaIa7a7a7a7a7a7a7a7a7a7a7a7a7a7a7a7a7a7a7.a.a.a.a.a.a.a.z.J.ba7a7a7a7a7a7a7a7a7a7a7a7a7a7.e#W",
"#WaIaZaZaZaJaZaZaZaJaZaZaZaJaZaZaZaJaZaZaZ.a.a.a.a.a.a.a.a.a.Q.o.aaZaZaZaZaZaJaZa0a0a0a0a0.Y.e#W",
"#Wa7aJaZaJa0aJaZaJa0aJaZaJa0aJaZaJa0aJaZ.a.a.a.a.a.f.a.a.a.a.a.a.a.aaJaJaZaJa0aJa0a0a0a0a0.X.e#W",
"#Wa7aZaJaZaZaZaJaZaZaZaJaZaZaZaJaZaZaZaJ.a.a.a.a.a.a.a.a.a.a.a.a.a.aaZaZaJaZaZaZa0a0a0a0#Q.Y.e#W",
"#Wa7aJa0aJaZaJa0aJaZaJa0aJaZaJa0aJaZaJa0.a.a.b.o.a.a.a.a.b.a.a.a.a.a.aaJa0aJaZaJaJa0a0#O#O.X.e#W",
"#Wa7aZaZaZaJ.............................a.g#K#c.i.a.a.2#Sae.z.g.a.a.a.............J#Q#P#E.V.e#W",
"#Wa7aJaZaJa0...6.7.6.N.6.7.6.8#g.8#g###g.aa3aRa3a3.a.gaWa3a3#T.a.a.a.a###g#.#g#..8a7#l#P#R.6.k#W",
"#Wa7aZaJaZaZ...7.6.7.6.7#f.8#g#i#g#j#z#j.aas.a.ra3.i.oa3.a#ea3.l.a.a.a.A.A...G.X.Xa7#O#Q#5.X.e#W",
"#Wa7aJa0aJaZ...6.N.6.8#g###g#j#k#n#z#n#C.aas.a.l.U.g.ha5.a#gaE.z.a.a.a.A...p.A.y.Xa7#R#6#R.6.e#W",
"#Wa7aZaZaZaJ...7.6.8#g#j#z#j#z#z#C#B#N#B.a.u.T#UaUaXaXaX.a.2a3.a.a.a.a.j.j.q.x.A.Xa7#5#R#4.X.e#W",
"#Wa7aJaZaJa0...6.8#g#j#k#n#C#B#N#E#N#E#N.a.b#8aVa2aXaOaXaXaDar.a.a.a.a...q.x.A.K.Xa7#R#5#Q.Y.e#W",
"#Wa7aZaJaZaZ...8#g#j#z#j#z#B#N#P#4#P#4#P.a#MaKa2a1aXaXaXaNazak.h.a.a.a.w.x.A.J.W.6a7#5#Q#4.X.e#W",
"#Wa7aJa0aJaZ...8###k#k#C#C#N#k#C#C#k#C#C.a.Eaua2aXaXaXaX#FaBat.b.a.g.a.y.A.A.M.Y.Na7#Q#P#Q.Y.e#W",
"#Wa7aZaZaZaJ...8#g#j#z#B#N#P#z#B#N#z#B#N.l.3#b#VaXaX#palax#9ac.t.a.a.U.a.A.K.6.X.6a7#4#O#O.X.e#W",
"#Wa7aJaZaJa0..#g###k#n#C#E#P#n#C#E#n#C#E.v#ead#qalatab#CacanaRae.a.a.a.a.i.X.7.6.7a7#Q#P#E.V.e#W",
"#Wa7aZaJaZaZ...8#g#j#z#B#N#N#z#B#N#z#B#N.a#eaCa##H#G#Xadaea3a3a3.i.a.a.a.a.X.6.7.6a7#O#O#O.X.e#W",
"#Wa7aJa0aJaZ..#g#j#k#n#C#C#N#n#C#C#n#C.i.aaWa3aeaea#a#aEa3a3a3a3aW.a.a.f.a.b.7.6.Na7#E#P#E.V.d#W",
"#Wa7aZaZaZaJ...8#g#j#z#z#C#B#z#z#C#z.l.a#Sa3a6a3aeana3a3a3a3a3a3a6.b.a.a.a.a.6.7.6a7#O#E#N.K.e#W",
"#Wa7aJaZaJa0...8#.#k#n#z#n#C#n#z#n#k.a.ga3a3a3a3a3a3a3a3a6a3a3a3a3#K.a.a.a.a.a.6.7a7#E#O#D.V.d#W",
"#Wa7aZaJaZaZ...8#g#j#g#j#z#B#z#BaF.a.a#ra3a3a3a6a6a3a6a6a3a3a3a3a3aW.a.a.a.a.a.a.6a7#N#D#N.K.e#W",
"#Wa7aJa0aJaZ...6.8#g###k#k#z#n#C.a.a.a#IanaWa3a3aCaQa3a3a3asaeaeaeaR.o.a.a.a.a.a.la7#E#B#D.V.d#W",
"#Wa7aZaZaZaJ...7.6.8#g#j#h#j#z#j.a.a.maea6a3a3a3aWa3a3a3a6a3a3aRanaea3.a.l.b.a.a.aa7#N#A#B.K.c#W",
"#Wa7aJaZaJa0...6.7.8#.#g###g#j.a.a.b#Ya3a3a6a4a3a3a3a5a3a3a3a3a3a6aRae.b.a.a.a.a.a.a#D#B#m.L.d#W",
"#Wa7aZaJaZaZ...7.6.7.6.8#g#g#g.a.o.aa3a3a3a6a6a6a3a3a3a3a6a3a3a6a3a6aRaC.a.a.a.a.a.a#A#A#A.K.d#W",
"#Wa7aJa0aJaZ...6.N.6.N.6.8#g.8.b.a#ea3a3a3a3a6a3a3a3a6a6a3a3a3a3a3a6a3a3.i.a.a.a.a.a#m#A#m.L.##W",
"#Wa7aZaZaZaI...7.6.7.6.7.6.8.a.o.aa3a3a3a3a6a3aWa3a6a3a3a3a6a3a3a6a3a6a3.g.a.a.a.a.a.a#m#z.K.c#W",
"#Wa7aJaZaJaJ...6.7.6.N.6.7.6.a.a.Ja3a3a3a3a3a3aQa6a3a6a3a3a3a3a3a3a3a3a3.J.a.a.a.a.a.a#A#l.K.##W",
"#Wa7aZaIaYaI...7.6.7.6.7.6.b.b.aaea3a3a6a3a6a3aPa3a3a5a3a3a3a6a3a3a3a3a3#r.a.a.a.a.a.a#l#y.K.c#W",
"#Wa7aJaJaJaH...6.N.6.7.6.N.a.i.aaWa3a3a3a6a3a3aCa3a3a3a3a3a3a6a6a5a3a3a3#K.a.a.a.a.a.a.a#l.I..#W",
"#Wa7aYaIaHaH...7.6.7.6.7.a.a.o.aaWa3a3a3a3a6a3aPa3a3a3a3a6a3a3a6a3a3a6a3a#.a.a.a.a.a.a.a#i.C.c#W",
"#Wa7aIaHaIaH...6.7.6.N.6.a.a.g.aaRa3a3a6a3a3a3aRa6a3a3a3a3a3a3a3a3a3a3a3aE.a.a.a.a.a.a.a#..I..#W",
"#Wa7aHaIaHaH#Oa7a7a7a7a7.aah#a.oa3a6a3a3a3a6a3aQa3a3a3a3a3a3a3a3a3a3a3a3#e.i.a.a.a.a.a.a#g.A..#W",
"#Wa7aqaHaqaHaqaoaqao#7aoaya1a2#v.za3a6a3a6a3a3aQa3a3a3a3a5a3a3a3a3a3aSaz#2.a.a.a.a.a.a#i#..I..#W",
"#Wa7aHaqaHapaGapaoaoaoamaKa2a1a2#a.ga3a3a3a3a6aCa3a3a3a3a3a3a3a3a3a3ayaNaz.a.a.a.a.ba.aN#g.A..#W",
"#Wa7aqaHaqaoapaoapaoavakaTaUa2aUa1.f.baWa3a5a3a3a3a3a5a6a3a3a3a3a3a3aga2#1.f.a.a.a.5a1a1.9.B..#W",
"#Wa7#O.8.6.8.6.8#3afataTaVa1aUa2a2az.a.aaPa3a6a3a6a3a3a3a3a3a6a3a3aeaiaVaf#M.R.D#xaBaVa2.y.A..#W",
"#W.8..........aTaTa2aVa2a2a2aUa1aUa1.F.a.a.zaWa3a3a3a3a3a6a3a3a3a3ae#0aTaBatatalaBaVaUa1a1....#W",
"#W#W#W#W#W#W#WaUa1a2a2aUa2a1aUaUa2a2aw.f.a.aaWa3a3a5a3a3a3a3a3a3a6ae#xaLaTaTaLaTaVa2a1aUa2aN#W#W",
"#W#W#W#W#W#W#WaAaUa2aUa2a2a1aUaUa2aUaU#2.a.aaWa6a3a3a3a3a3a3a6a3a3#Y#xaBaVa2a2a2a2a1a1aUa1aVaM#W",
"#W#W#W#W#W#W#WaKa2a2aUaUaUa1a1aUaUa2a2aNaja3a3a3a3a6a3a3a3a3a3a3#K.a#waBaVa2aVa2aUaUa2a1aUa1a1a1",
"#W#W#W#W#W#W#WataVaUa1aUaUa1a1a1a2a2a2aUaxa4a3a3a6a6a3a5a3a3a3.l.a.f#LaTa2a1a2a1a1a1a2aUa2a1a1#W",
"#W#W#W#W#W#W#WaBa2a2a2aUaUa2a1a2a2aUa2aVaB.0a3a3a3a6a3a3a3#e.a.a.a.h#MaLa2a2a2aUaUaUaVa1a2aV#W#W",
"#W#W#W#W#W#W#WakaLaTaVaVaVaUa1a1a2a2a2aUax#w.a.a.a.a.a.a.a.a.a.a.a.s#VaLa1aUa1aUa2aUaVay#W#W#W#W",
"#W#W#W#W#W#W#W#FafafafatataBaTaVa2a2a2aTaf#o.h.a.a.a.a.a.a.a.a.a.a.s#LataVaVa2aVaLat#u#W#W#W#W#W",
"#W#W#W#W#W#W#W.V......#s#L#M#ZafaxaKak#8#J.4.h.a.a...............a.n#daaafaxaxaf#M#W#W#W#W#W#W#W",
"#W#W#W#W#W#W#W#W#W#W#W#W#W#W.1#o#J#L#L#t.4.O#W#W#W#W#W#W#W#W#W#W#W#W.Z#J#Z#M#Z#w#W#W#W#W#W#W#W#W",
"#W#W#W#W#W#W#W#W#W#W#W#W#W#W#W#W#W.P.0.P.S#W#W#W#W#W#W#W#W#W#W#W#W#W#W.H.4.4.P#W#W#W#W#W#W#W#W#W"
};
